<svg xmlns="http://www.w3.org/2000/svg" xmlns:xlink="http://www.w3.org/1999/xlink" width="3000" zoomAndPan="magnify" viewBox="0 0 2250 2250.000011" height="3000" preserveAspectRatio="xMidYMid meet" version="1.0"><defs><filter x="0%" y="0%" width="100%" height="100%" id="c5de070b07"><feColorMatrix values="0 0 0 0 1 0 0 0 0 1 0 0 0 0 1 0 0 0 1 0" color-interpolation-filters="sRGB"/></filter><filter x="0%" y="0%" width="100%" height="100%" id="b4e4be72e3"><feColorMatrix values="0 0 0 0 1 0 0 0 0 1 0 0 0 0 1 0.2126 0.7152 0.0722 0 0" color-interpolation-filters="sRGB"/></filter><clipPath id="2f0c0f4834"><path d="M 1 0.496094 L 1834.605469 0.496094 L 1834.605469 1092.667969 L 1 1092.667969 Z M 1 0.496094 " clip-rule="nonzero"/></clipPath><mask id="3bee73431a"><g filter="url(#c5de070b07)"><g filter="url(#b4e4be72e3)" transform="matrix(1.018818, 0, 0, 1.019769, 0.733935, 0.495338)"><image x="0" y="0" width="1800" xlink:href="/images/Dashboard/MacBook-iPhone-Dashboard_opt_1.webp" height="1071" preserveAspectRatio="xMidYMid meet"/></g></g></mask><clipPath id="4525870e78"><rect x="0" width="1835" y="0" height="1093"/></clipPath><clipPath id="b48769199a"><path d="M 0.394531 0.261719 L 397 0.261719 L 397 818.503906 L 0.394531 818.503906 Z M 0.394531 0.261719 " clip-rule="nonzero"/></clipPath><mask id="8d8d71d2a1"><g filter="url(#c5de070b07)"><g filter="url(#b4e4be72e3)" transform="matrix(0.45458, 0, 0, 0.45458, 0.393534, 0.260958)"><image x="0" y="0" width="873" xlink:href="/images/Dashboard/MacBook-iPhone-Dashboard_opt_2.webp" height="1800" preserveAspectRatio="xMidYMid meet"/></g></g></mask><clipPath id="b2732bfab0"><rect x="0" width="398" y="0" height="819"/></clipPath></defs><g transform="matrix(1, 0, 0, 1, 238, 578)"><g clip-path="url(#4525870e78)"><g clip-path="url(#2f0c0f4834)"><g mask="url(#3bee73431a)"><g transform="matrix(1.018818, 0, 0, 1.019769, 0.733935, 0.495338)"><image x="0" y="0" width="1800" xlink:href="/images/Dashboard/MacBook-iPhone-Dashboard_opt_3.webp" height="1071" preserveAspectRatio="xMidYMid meet"/></g></g></g></g></g><g transform="matrix(1, 0, 0, 1, 177, 852)"><g clip-path="url(#b2732bfab0)"><g clip-path="url(#b48769199a)"><g mask="url(#8d8d71d2a1)"><g transform="matrix(0.45458, 0, 0, 0.45458, 0.393534, 0.260958)"><image x="0" y="0" width="873" xlink:href="/images/Dashboard/MacBook-iPhone-Dashboard_opt_4.webp" height="1800" preserveAspectRatio="xMidYMid meet"/></g></g></g></g></g></svg>