<svg xmlns="http://www.w3.org/2000/svg" xmlns:xlink="http://www.w3.org/1999/xlink" width="3000" zoomAndPan="magnify" viewBox="0 0 2250 2250.000011" height="3000" preserveAspectRatio="xMidYMid meet" version="1.0"><defs><filter x="0%" y="0%" width="100%" height="100%" id="6f73d5c921"><feColorMatrix values="0 0 0 0 1 0 0 0 0 1 0 0 0 0 1 0 0 0 1 0" color-interpolation-filters="sRGB"/></filter><filter x="0%" y="0%" width="100%" height="100%" id="aea4ac8e7c"><feColorMatrix values="0 0 0 0 1 0 0 0 0 1 0 0 0 0 1 0.2126 0.7152 0.0722 0 0" color-interpolation-filters="sRGB"/></filter><clipPath id="c1b6cc7ae6"><path d="M 1 0.496094 L 1834.605469 0.496094 L 1834.605469 1092.667969 L 1 1092.667969 Z M 1 0.496094 " clip-rule="nonzero"/></clipPath><mask id="243501196a"><g filter="url(#6f73d5c921)"><g filter="url(#aea4ac8e7c)" transform="matrix(1.018818, 0, 0, 1.019769, 0.733935, 0.495458)"><image x="0" y="0" width="1800" xlink:href="/images/Goals/MacBook-iPhone-Goals_opt_1.webp" height="1071" preserveAspectRatio="xMidYMid meet"/></g></g></mask><clipPath id="94b5120f15"><rect x="0" width="1835" y="0" height="1093"/></clipPath><clipPath id="d5525e0aaf"><path d="M 0.394531 0.261719 L 397 0.261719 L 397 818.503906 L 0.394531 818.503906 Z M 0.394531 0.261719 " clip-rule="nonzero"/></clipPath><mask id="6d0d966f79"><g filter="url(#6f73d5c921)"><g filter="url(#aea4ac8e7c)" transform="matrix(0.45458, 0, 0, 0.45458, 0.393534, 0.261126)"><image x="0" y="0" width="873" xlink:href="/images/Goals/MacBook-iPhone-Goals_opt_2.webp" height="1800" preserveAspectRatio="xMidYMid meet"/></g></g></mask><clipPath id="9b8ffdb414"><rect x="0" width="398" y="0" height="819"/></clipPath></defs><g transform="matrix(1, 0, 0, 1, 238, 578)"><g clip-path="url(#94b5120f15)"><g clip-path="url(#c1b6cc7ae6)"><g mask="url(#243501196a)"><g transform="matrix(1.018818, 0, 0, 1.019769, 0.733935, 0.495458)"><image x="0" y="0" width="1800" xlink:href="/images/Goals/MacBook-iPhone-Goals_opt_3.webp" height="1071" preserveAspectRatio="xMidYMid meet"/></g></g></g></g></g><g transform="matrix(1, 0, 0, 1, 177, 852)"><g clip-path="url(#9b8ffdb414)"><g clip-path="url(#d5525e0aaf)"><g mask="url(#6d0d966f79)"><g transform="matrix(0.45458, 0, 0, 0.45458, 0.393534, 0.261126)"><image x="0" y="0" width="873" xlink:href="/images/Goals/MacBook-iPhone-Goals_opt_4.webp" height="1800" preserveAspectRatio="xMidYMid meet"/></g></g></g></g></g></svg>