<svg xmlns="http://www.w3.org/2000/svg" xmlns:xlink="http://www.w3.org/1999/xlink" width="3000" zoomAndPan="magnify" viewBox="0 0 2250 2250.000011" height="3000" preserveAspectRatio="xMidYMid meet" version="1.0"><defs><filter x="0%" y="0%" width="100%" height="100%" id="6a9749ce18"><feColorMatrix values="0 0 0 0 1 0 0 0 0 1 0 0 0 0 1 0 0 0 1 0" color-interpolation-filters="sRGB"/></filter><filter x="0%" y="0%" width="100%" height="100%" id="cdb03db4c2"><feColorMatrix values="0 0 0 0 1 0 0 0 0 1 0 0 0 0 1 0.2126 0.7152 0.0722 0 0" color-interpolation-filters="sRGB"/></filter><clipPath id="d338fae480"><path d="M 1 0.496094 L 1834.605469 0.496094 L 1834.605469 1092.667969 L 1 1092.667969 Z M 1 0.496094 " clip-rule="nonzero"/></clipPath><mask id="45b95eee49"><g filter="url(#6a9749ce18)"><g filter="url(#cdb03db4c2)" transform="matrix(1.018818, 0, 0, 1.019769, 0.733935, 0.495338)"><image x="0" y="0" width="1800" xlink:href="/images/Subscriptions/MacBook-iPhone-Subscriptions_opt_1.webp" height="1071" preserveAspectRatio="xMidYMid meet"/></g></g></mask><clipPath id="2d990da279"><rect x="0" width="1835" y="0" height="1093"/></clipPath><clipPath id="f62e0cb4d5"><path d="M 0.394531 0.261719 L 397 0.261719 L 397 818.503906 L 0.394531 818.503906 Z M 0.394531 0.261719 " clip-rule="nonzero"/></clipPath><mask id="c36ae34f48"><g filter="url(#6a9749ce18)"><g filter="url(#cdb03db4c2)" transform="matrix(0.45458, 0, 0, 0.45458, 0.393534, 0.260958)"><image x="0" y="0" width="873" xlink:href="/images/Subscriptions/MacBook-iPhone-Subscriptions_opt_2.webp" height="1800" preserveAspectRatio="xMidYMid meet"/></g></g></mask><clipPath id="99b09b558d"><rect x="0" width="398" y="0" height="819"/></clipPath></defs><g transform="matrix(1, 0, 0, 1, 238, 578)"><g clip-path="url(#2d990da279)"><g clip-path="url(#d338fae480)"><g mask="url(#45b95eee49)"><g transform="matrix(1.018818, 0, 0, 1.019769, 0.733935, 0.495338)"><image x="0" y="0" width="1800" xlink:href="/images/Subscriptions/MacBook-iPhone-Subscriptions_opt_3.webp" height="1071" preserveAspectRatio="xMidYMid meet"/></g></g></g></g></g><g transform="matrix(1, 0, 0, 1, 177, 852)"><g clip-path="url(#99b09b558d)"><g clip-path="url(#f62e0cb4d5)"><g mask="url(#c36ae34f48)"><g transform="matrix(0.45458, 0, 0, 0.45458, 0.393534, 0.260958)"><image x="0" y="0" width="873" xlink:href="/images/Subscriptions/MacBook-iPhone-Subscriptions_opt_4.webp" height="1800" preserveAspectRatio="xMidYMid meet"/></g></g></g></g></g></svg>