<svg xmlns="http://www.w3.org/2000/svg" xmlns:xlink="http://www.w3.org/1999/xlink" width="3000" zoomAndPan="magnify" viewBox="0 0 2250 2250.000011" height="3000" preserveAspectRatio="xMidYMid meet" version="1.0"><defs><filter x="0%" y="0%" width="100%" height="100%" id="ba2800b3f1"><feColorMatrix values="0 0 0 0 1 0 0 0 0 1 0 0 0 0 1 0 0 0 1 0" color-interpolation-filters="sRGB"/></filter><filter x="0%" y="0%" width="100%" height="100%" id="02d8cd720a"><feColorMatrix values="0 0 0 0 1 0 0 0 0 1 0 0 0 0 1 0.2126 0.7152 0.0722 0 0" color-interpolation-filters="sRGB"/></filter><clipPath id="6452cf4f28"><path d="M 1 0.496094 L 1834.605469 0.496094 L 1834.605469 1092.667969 L 1 1092.667969 Z M 1 0.496094 " clip-rule="nonzero"/></clipPath><mask id="cdc2a43370"><g filter="url(#ba2800b3f1)"><g filter="url(#02d8cd720a)" transform="matrix(1.018818, 0, 0, 1.019769, 0.733935, 0.495338)"><image x="0" y="0" width="1800" xlink:href="/images/Loans/MacBook-iPhone-Loans_opt_1.webp" height="1071" preserveAspectRatio="xMidYMid meet"/></g></g></mask><clipPath id="4370309bcf"><rect x="0" width="1835" y="0" height="1093"/></clipPath><clipPath id="56f2067044"><path d="M 0.394531 0.261719 L 397 0.261719 L 397 818.503906 L 0.394531 818.503906 Z M 0.394531 0.261719 " clip-rule="nonzero"/></clipPath><mask id="eab1076ef0"><g filter="url(#ba2800b3f1)"><g filter="url(#02d8cd720a)" transform="matrix(0.45458, 0, 0, 0.45458, 0.393534, 0.260958)"><image x="0" y="0" width="873" xlink:href="/images/Loans/MacBook-iPhone-Loans_opt_2.webp" height="1800" preserveAspectRatio="xMidYMid meet"/></g></g></mask><clipPath id="5e0e9de609"><rect x="0" width="398" y="0" height="819"/></clipPath></defs><g transform="matrix(1, 0, 0, 1, 238, 578)"><g clip-path="url(#4370309bcf)"><g clip-path="url(#6452cf4f28)"><g mask="url(#cdc2a43370)"><g transform="matrix(1.018818, 0, 0, 1.019769, 0.733935, 0.495338)"><image x="0" y="0" width="1800" xlink:href="/images/Loans/MacBook-iPhone-Loans_opt_3.webp" height="1071" preserveAspectRatio="xMidYMid meet"/></g></g></g></g></g><g transform="matrix(1, 0, 0, 1, 177, 852)"><g clip-path="url(#5e0e9de609)"><g clip-path="url(#56f2067044)"><g mask="url(#eab1076ef0)"><g transform="matrix(0.45458, 0, 0, 0.45458, 0.393534, 0.260958)"><image x="0" y="0" width="873" xlink:href="/images/Loans/MacBook-iPhone-Loans_opt_4.webp" height="1800" preserveAspectRatio="xMidYMid meet"/></g></g></g></g></g></svg>